<svg xmlns="http://www.w3.org/2000/svg" fill="none" viewBox="0 0 200 200">
  <circle cx="100" cy="100" r="100" fill="currentFill" />
  <path fill="currentColor"
    d="M84.77 70.3c0-4.19-.3-7.68-.9-10.5 2.9-.34 5.85-.51 8.83-.51 1.45 0 2.18.64 2.18 1.92v69.5c0 4.27-1.45 7.6-4.35 9.99-2.9 2.39-6.87 3.58-11.9 3.58-4.96 0-8.62-1.2-11.01-3.58-2.4 2.39-6.06 3.58-11.01 3.58-4.87 0-8.66-1.1-11.4-3.33-2.64-2.22-3.96-5.46-3.96-9.73V70.68c0-1.8-.39-3.03-1.15-3.71-.69-.77-1.92-1.15-3.72-1.15 0-4.87 2.73-7.3 8.2-7.3 4.52 0 6.78 2.94 6.78 8.83v63.36c0 1.62.51 2.9 1.54 3.84a6.73 6.73 0 0 0 4.22 1.28c1.7 0 3.11-.38 4.22-1.15 1.11-.85 1.67-2 1.67-3.46V70.3c0-4.19-.3-7.68-.9-10.5 2.9-.34 5.85-.51 8.83-.51 1.45 0 2.18.64 2.18 1.92v69.5c0 1.62.51 2.9 1.54 3.84a6.73 6.73 0 0 0 4.22 1.28c1.8 0 3.2-.43 4.22-1.28a4.77 4.77 0 0 0 1.67-3.84V70.3Zm37.13-2.05c-2.3 0-4.6 1.15-6.91 3.45v59.27l.51 12.03c-2.9.43-5.76.64-8.58.64-1.36 0-2.04-.72-2.04-2.18V72.22c0-1.88-.34-3.2-1.03-3.97-.68-.86-1.92-1.28-3.71-1.28-.08-2.22.51-3.97 1.8-5.25 1.27-1.28 3.32-1.92 6.14-1.92 2.81 0 4.82 1.4 6.01 4.22 3.33-2.81 6.74-4.22 10.24-4.22 5.2 0 8.8 1.62 10.75 4.86 3.5-3.24 7.17-4.86 11.01-4.86 8.45 0 12.67 4.18 12.67 12.54v59.78c0 1.8.34 3.07 1.03 3.84.77.68 2.05 1.02 3.84 1.02 0 4.87-2.73 7.3-8.2 7.3-4.52 0-6.78-2.94-6.78-8.83V73.1c0-3.24-1.66-4.86-4.99-4.86a8.36 8.36 0 0 0-6.66 3.2v59.52l.52 12.03c-2.9.43-5.76.64-8.58.64-1.36 0-2.05-.72-2.05-2.18V73.11c0-3.24-1.66-4.86-4.99-4.86Z" />
</svg>